<svg xmlns="http://www.w3.org/2000/svg" width="841mm" height="1189mm" viewBox="0 0 841 1189">
  <defs>
    <linearGradient id="mint" x1="0" y1="0" x2="1" y2="1">
      <stop offset="0" stop-color="#2DD4A8"/>
      <stop offset="1" stop-color="#0D9373"/>
    </linearGradient>
    <radialGradient id="glow" cx="50%" cy="50%" r="50%">
      <stop offset="0" stop-color="#2DD4A8" stop-opacity=".24"/>
      <stop offset="1" stop-color="#2DD4A8" stop-opacity="0"/>
    </radialGradient>
    <filter id="shadow" x="-30%" y="-30%" width="160%" height="180%">
      <feDropShadow dx="0" dy="10" stdDeviation="14" flood-color="#102B25" flood-opacity=".12"/>
    </filter>
    <style>
      .sans{font-family:"PingFang SC","Microsoft YaHei",Arial,sans-serif}
      .mono{font-family:"SF Mono","Menlo",monospace}
    </style>
  </defs>

  <rect width="841" height="1189" fill="#FAFAF8"/>
  <circle cx="745" cy="130" r="240" fill="url(#glow)"/>
  <circle cx="80" cy="1010" r="255" fill="url(#glow)" opacity=".48"/>

  <g opacity=".32" fill="#0D9373">
    <circle cx="691" cy="90" r="2"/><circle cx="717" cy="90" r="2"/><circle cx="743" cy="90" r="2"/><circle cx="769" cy="90" r="2"/>
    <circle cx="691" cy="116" r="2"/><circle cx="717" cy="116" r="2"/><circle cx="743" cy="116" r="2"/><circle cx="769" cy="116" r="2"/>
    <circle cx="691" cy="142" r="2"/><circle cx="717" cy="142" r="2"/><circle cx="743" cy="142" r="2"/><circle cx="769" cy="142" r="2"/>
    <circle cx="691" cy="168" r="2"/><circle cx="717" cy="168" r="2"/><circle cx="743" cy="168" r="2"/><circle cx="769" cy="168" r="2"/>
  </g>

  <g transform="translate(62 58)">
    <rect width="52" height="52" rx="16" fill="url(#mint)"/>
    <path d="M16 18c9-8 22-4 22 7 0 10-9 17-22 13 8-2 13-7 13-13 0-5-4-8-13-7z" fill="#fff"/>
    <circle cx="20" cy="29" r="3.5" fill="#2DD4A8"/>
    <text x="68" y="24" class="sans" font-size="21" font-weight="700" fill="#111827">InnerOS</text>
    <text x="68" y="46" class="mono" font-size="9" letter-spacing="2.2" fill="#6B7280">YOUR PRIVATE SECOND BRAIN</text>
  </g>

  <text x="62" y="224" class="sans" font-size="73" font-weight="700" fill="#111827">让每一次思考</text>
  <text x="62" y="306" class="sans" font-size="73" font-weight="700" fill="#111827">都有回声<tspan fill="#2DD4A8">。</tspan></text>
  <text x="65" y="358" class="sans" font-size="20" fill="#4B5563">记录碎片，连接主题，看见长期成长。</text>
  <text x="65" y="391" class="sans" font-size="20" fill="#4B5563">一个真正属于你的，本地优先 AI 思考系统。</text>

  <g transform="translate(62 438)">
    <rect width="717" height="405" rx="30" fill="#111827" filter="url(#shadow)"/>
    <rect x="22" y="22" width="673" height="361" rx="20" fill="#F8F8F5"/>
    <rect x="22" y="22" width="142" height="361" rx="20" fill="#F1F3EF"/>
    <rect x="164" y="22" width="1" height="361" fill="#E1E5DF"/>
    <g transform="translate(43 48)">
      <rect width="32" height="32" rx="10" fill="#2DD4A8"/>
      <circle cx="16" cy="16" r="7" fill="none" stroke="#fff" stroke-width="2.5"/>
      <text x="43" y="21" class="sans" font-size="15" font-weight="700" fill="#111827">InnerOS</text>
      <g class="sans" font-size="11" fill="#6B7280">
        <rect x="-8" y="60" width="116" height="31" rx="9" fill="#E2F8F0"/>
        <text x="10" y="80" fill="#0D9373" font-weight="600">今日</text>
        <text x="10" y="122">全部记录</text>
        <text x="10" y="160">AI 对话</text>
        <text x="10" y="198">主题脉络</text>
        <text x="10" y="236">时间线</text>
        <text x="10" y="274">洞察</text>
      </g>
    </g>
    <g transform="translate(196 57)">
      <text class="sans" font-size="12" fill="#9CA3AF">2026年6月8日 · 星期一</text>
      <text y="42" class="sans" font-size="27" font-weight="700" fill="#111827">今天，想记录什么？</text>
      <rect y="67" width="460" height="105" rx="16" fill="#FFFFFF" stroke="#E5E7EB"/>
      <text x="20" y="98" class="sans" font-size="11" fill="#9CA3AF">写下一个念头、一段经历，或一个还没有答案的问题……</text>
      <rect x="352" y="128" width="88" height="29" rx="14.5" fill="#2DD4A8"/>
      <text x="374" y="147" class="sans" font-size="10" font-weight="600" fill="#FFFFFF">保存并分析</text>
      <text y="213" class="sans" font-size="15" font-weight="700" fill="#111827">AI 正在替你连接这些线索</text>
      <g transform="translate(0 232)">
        <rect width="142" height="77" rx="14" fill="#FFFFFF" stroke="#E8E8E3"/>
        <text x="16" y="24" class="sans" font-size="9" fill="#9CA3AF">持续关注</text>
        <text x="16" y="51" class="sans" font-size="18" font-weight="700" fill="#111827">产品设计</text>
        <rect x="159" width="142" height="77" rx="14" fill="#FFFFFF" stroke="#E8E8E3"/>
        <text x="175" y="24" class="sans" font-size="9" fill="#9CA3AF">本周洞察</text>
        <text x="175" y="51" class="sans" font-size="18" font-weight="700" fill="#111827">7 条</text>
        <rect x="318" width="142" height="77" rx="14" fill="#EAFBF5"/>
        <text x="334" y="24" class="sans" font-size="9" fill="#0D9373">成长证据</text>
        <text x="334" y="51" class="sans" font-size="18" font-weight="700" fill="#0D9373">正在发生</text>
      </g>
    </g>
  </g>

  <g transform="translate(62 895)">
    <g>
      <circle cx="22" cy="22" r="22" fill="#E8FAF4"/><text x="22" y="29" text-anchor="middle" class="sans" font-size="20" fill="#0D9373">01</text>
      <text x="58" y="16" class="sans" font-size="17" font-weight="700" fill="#111827">随手记录</text>
      <text x="58" y="41" class="sans" font-size="12" fill="#6B7280">不打断思考，保留真实语境</text>
    </g>
    <g transform="translate(245)">
      <circle cx="22" cy="22" r="22" fill="#E8FAF4"/><text x="22" y="29" text-anchor="middle" class="sans" font-size="20" fill="#0D9373">02</text>
      <text x="58" y="16" class="sans" font-size="17" font-weight="700" fill="#111827">智能连接</text>
      <text x="58" y="41" class="sans" font-size="12" fill="#6B7280">主题、情绪与行动自动浮现</text>
    </g>
    <g transform="translate(490)">
      <circle cx="22" cy="22" r="22" fill="#E8FAF4"/><text x="22" y="29" text-anchor="middle" class="sans" font-size="20" fill="#0D9373">03</text>
      <text x="58" y="16" class="sans" font-size="17" font-weight="700" fill="#111827">长期看见</text>
      <text x="58" y="41" class="sans" font-size="12" fill="#6B7280">从时间线中发现自己的模式</text>
    </g>
  </g>

  <line x1="62" y1="1012" x2="779" y2="1012" stroke="#DDE4DF"/>
  <g transform="translate(62 1060)">
    <rect width="226" height="55" rx="27.5" fill="#111827"/>
    <text x="113" y="35" text-anchor="middle" class="sans" font-size="15" font-weight="600" fill="#FFFFFF">开始构建你的 InnerOS</text>
    <text x="0" y="96" class="mono" font-size="9" letter-spacing="1.6" fill="#9CA3AF">LOCAL FIRST  ·  PRIVATE BY DESIGN  ·  AI AUGMENTED</text>
  </g>
  <g transform="translate(691 1051)">
    <rect width="88" height="88" rx="18" fill="#FFFFFF" stroke="#DDE4DF"/>
    <g fill="#111827">
      <rect x="15" y="15" width="22" height="22"/><rect x="19" y="19" width="14" height="14" fill="#fff"/><rect x="23" y="23" width="6" height="6"/>
      <rect x="51" y="15" width="22" height="22"/><rect x="55" y="19" width="14" height="14" fill="#fff"/><rect x="59" y="23" width="6" height="6"/>
      <rect x="15" y="51" width="22" height="22"/><rect x="19" y="55" width="14" height="14" fill="#fff"/><rect x="23" y="59" width="6" height="6"/>
      <rect x="45" y="45" width="7" height="7"/><rect x="56" y="45" width="7" height="7"/><rect x="67" y="45" width="6" height="7"/>
      <rect x="45" y="56" width="7" height="17"/><rect x="56" y="56" width="17" height="7"/><rect x="67" y="67" width="6" height="6"/>
    </g>
  </g>
</svg>
